<svg width="48" height="48" viewBox="0 0 48 48" fill="none" xmlns="http://www.w3.org/2000/svg">
  <defs>
    <filter id="glow" x="-45%" y="-45%" width="190%" height="190%">
      <feGaussianBlur stdDeviation="1.35" result="blur"/>
      <feMerge><feMergeNode in="blur"/><feMergeNode in="SourceGraphic"/></feMerge>
    </filter>
  </defs>
  <path d="M7.5 5.5h33A4.5 4.5 0 0 1 45 10v25.5a4.5 4.5 0 0 1-4.5 4.5H28l-7.5 3v-3H7.5A4.5 4.5 0 0 1 3 35.5V10a4.5 4.5 0 0 1 4.5-4.5Z" fill="#111737" stroke="#AFA7E8" stroke-width="1.1"/>
  <path d="M16.5 16.8c1.6-3 4.8-4.5 8.6-4.5 5.1 0 8.3 2.8 8.3 6.8 0 3.6-1.7 5.5-4.6 7.2-2.5 1.5-4 3.3-4 5.8" stroke="#C7BCFF" stroke-opacity=".19" stroke-width="3.1" stroke-linecap="round" stroke-linejoin="round"/>
  <circle cx="24.8" cy="35" r="1.35" fill="none" stroke="#C7BCFF" stroke-opacity=".19" stroke-width="3.1"/>
  <g>
    <rect x="9" y="8" width="5" height="5" rx="1.6" fill="#5C6399"/><rect x="15" y="8" width="5" height="5" rx="1.6" fill="#B7A9EE"/><rect x="21" y="8" width="5" height="5" rx="1.6" fill="#B7A9EE" filter="url(#glow)"/><rect x="27" y="8" width="5" height="5" rx="1.6" fill="#C9FF3D" filter="url(#glow)"/><rect x="33" y="8" width="5" height="5" rx="1.6" fill="#5C6399"/>
    <rect x="9" y="14" width="5" height="5" rx="1.6" fill="#5C6399"/><rect x="15" y="14" width="5" height="5" rx="1.6" fill="#5C6399"/><rect x="21" y="14" width="5" height="5" rx="1.6" fill="#5C6399"/><rect x="27" y="14" width="5" height="5" rx="1.6" fill="#C9FF3D" filter="url(#glow)"/><rect x="33" y="14" width="5" height="5" rx="1.6" fill="#5C6399"/>
    <rect x="9" y="20" width="5" height="5" rx="1.6" fill="#5C6399"/><rect x="15" y="20" width="5" height="5" rx="1.6" fill="#5C6399"/><rect x="21" y="20" width="5" height="5" rx="1.6" fill="#B7A9EE" filter="url(#glow)"/><rect x="27" y="20" width="5" height="5" rx="1.6" fill="#5C6399"/><rect x="33" y="20" width="5" height="5" rx="1.6" fill="#5C6399"/>
    <rect x="9" y="26" width="5" height="5" rx="1.6" fill="#5C6399"/><rect x="15" y="26" width="5" height="5" rx="1.6" fill="#5C6399"/><rect x="21" y="26" width="5" height="5" rx="1.6" fill="#5C6399"/><rect x="27" y="26" width="5" height="5" rx="1.6" fill="#5C6399"/><rect x="33" y="26" width="5" height="5" rx="1.6" fill="#5C6399"/>
    <rect x="9" y="32" width="5" height="5" rx="1.6" fill="#5C6399"/><rect x="15" y="32" width="5" height="5" rx="1.6" fill="#5C6399"/><rect x="21" y="32" width="5" height="5" rx="1.6" fill="#C9FF3D" filter="url(#glow)"/><rect x="27" y="32" width="5" height="5" rx="1.6" fill="#5C6399"/><rect x="33" y="32" width="5" height="5" rx="1.6" fill="#5C6399"/>
  </g>
</svg>
